<svg id="Layer_1" data-name="Layer 1" xmlns="http://www.w3.org/2000/svg" viewBox="0 0 512 512"><defs><style>.cls-1{fill:#d61e1e;}.cls-2{fill:#f4eded;}.cls-3{fill:#5b5147;fill-rule:evenodd;}</style></defs><title>no music</title><path class="cls-1" d="M256,7.92C119,7.92,7.92,119,7.92,256S119,504.08,256,504.08,504.08,393,504.08,256,393,7.92,256,7.92Z"/><path class="cls-2" d="M256,46.92C140.53,46.92,46.92,140.52,46.92,256S140.53,465.08,256,465.08,465.08,371.47,465.08,256,371.47,46.92,256,46.92Z"/><path class="cls-3" d="M237.68,153.89C226,209,216.12,266,204.68,321.34c-20.18-29.28-100.66-25.28-99,18.33S193.4,384,208.34,349.46c4.22-9.78,5.08-24.64,7.33-36.67,7.51-40.2,13.89-75.18,22-113.68,53.81,3.6,109.84-.9,151.56-13.44-8,41.73-15.3,84.11-24.44,124.67-19.12-30.23-106.61-25.81-97.78,23.22,7,38.66,89.28,37.34,101.45,4.89C378,313,381,274.26,388,239.45c7.46-37.08,15.32-76.84,18.34-101.45C356.48,149.36,299.44,158.28,237.68,153.89Z"/><path class="cls-1" d="M93.77,68.31A249.59,249.59,0,0,0,68.31,93.77L418.23,443.68a249.63,249.63,0,0,0,25.46-25.46Z"/></svg>